<svg width="16" height="16" viewBox="0 0 16 16" fill="none" xmlns="http://www.w3.org/2000/svg">
<path d="M11.3334 10H12.6667V11.3333H11.3334V10Z" fill="#4E5079"/>
<path d="M12.6667 7.33334H11.3334V8.66668H12.6667V7.33334Z" fill="#4E5079"/>
<path fill-rule="evenodd" clip-rule="evenodd" d="M8.66663 4.66667H15.3333V14H0.666626V2H8.66663V4.66667ZM5.33329 3.33333H7.33329V4.66667H5.33329V3.33333ZM7.33329 12.6667V11.3333H5.33329V12.6667H7.33329ZM7.33329 10V8.66667H5.33329V10H7.33329ZM7.33329 7.33333V6H5.33329V7.33333H7.33329ZM14 12.6667V6H8.66663V7.33333H9.99996V8.66667H8.66663V10H9.99996V11.3333H8.66663V12.6667H14ZM1.99996 12.6667V11.3333H3.99996V12.6667H1.99996ZM1.99996 10H3.99996V8.66667H1.99996V10ZM3.99996 7.33333V6H1.99996V7.33333H3.99996ZM1.99996 4.66667H3.99996V3.33333H1.99996V4.66667Z" fill="#4E5079"/>
</svg>
