<svg width="16" height="16" viewBox="0 0 16 16" fill="none" xmlns="http://www.w3.org/2000/svg">
<path fill-rule="evenodd" clip-rule="evenodd" d="M10.8481 6.84805C10.8481 8.32085 9.65421 9.51472 8.18141 9.51472C6.70868 9.51472 5.51477 8.32085 5.51477 6.84805C5.51477 5.3753 6.70868 4.1814 8.18141 4.1814C9.65421 4.1814 10.8481 5.3753 10.8481 6.84805ZM9.51474 6.84805C9.51474 7.58445 8.91781 8.18138 8.18141 8.18138C7.44508 8.18138 6.84808 7.58445 6.84808 6.84805C6.84808 6.11168 7.44508 5.51473 8.18141 5.51473C8.91781 5.51473 9.51474 6.11168 9.51474 6.84805Z" fill="#4E5079"/>
<path fill-rule="evenodd" clip-rule="evenodd" d="M3.86278 11.0122C1.46283 8.72725 1.36959 4.92938 3.65452 2.52944C5.93945 0.129485 9.73727 0.036245 12.1373 2.32118C14.5372 4.60611 14.6305 8.40392 12.3455 10.8039L8.20827 15.1494L3.86278 11.0122ZM11.3799 9.88452L8.162 13.2643L4.78216 10.0465C2.91553 8.26932 2.84301 5.31544 4.62019 3.44882C6.39736 1.58219 9.3512 1.50967 11.2179 3.28684C13.0845 5.06401 13.157 8.01786 11.3799 9.88452Z" fill="#4E5079"/>
</svg>
