<svg width="227" height="52" viewBox="0 0 227 52" fill="none" xmlns="http://www.w3.org/2000/svg">
<path d="M66.44 41.18C65.72 41.18 65.15 40.97 64.73 40.55C64.31 40.13 64.1 39.56 64.1 38.84V22.04C64.1 21.34 64.29 20.8 64.67 20.42C65.05 20.04 65.59 19.85 66.29 19.85H73.82C76.12 19.85 77.91 20.43 79.19 21.59C80.47 22.75 81.11 24.37 81.11 26.45C81.11 28.53 80.47 30.15 79.19 31.31C77.91 32.47 76.12 33.05 73.82 33.05H68.78V38.84C68.78 39.56 68.57 40.13 68.15 40.55C67.73 40.97 67.16 41.18 66.44 41.18ZM73.22 29.51C75.56 29.51 76.73 28.5 76.73 26.48C76.73 24.44 75.56 23.42 73.22 23.42H68.78V29.51H73.22Z" fill="white"/>
<path d="M93.7761 25.97C94.3761 25.93 94.8461 26.07 95.1861 26.39C95.5461 26.69 95.7261 27.15 95.7261 27.77C95.7261 28.43 95.5661 28.92 95.2461 29.24C94.9261 29.56 94.3561 29.76 93.5361 29.84L92.6361 29.93C91.5361 30.05 90.7361 30.41 90.2361 31.01C89.7561 31.61 89.5161 32.38 89.5161 33.32V39.05C89.5161 39.75 89.2961 40.28 88.8561 40.64C88.4361 41 87.9061 41.18 87.2661 41.18C86.6061 41.18 86.0561 41 85.6161 40.64C85.1961 40.28 84.9861 39.75 84.9861 39.05V28.04C84.9861 27.38 85.2061 26.87 85.6461 26.51C86.0861 26.15 86.6161 25.97 87.2361 25.97C87.8361 25.97 88.3361 26.15 88.7361 26.51C89.1361 26.85 89.3361 27.33 89.3361 27.95V28.76C89.6961 27.9 90.2361 27.24 90.9561 26.78C91.6961 26.32 92.4961 26.06 93.3561 26L93.7761 25.97Z" fill="white"/>
<path d="M100.807 41.18C100.147 41.18 99.5971 41 99.1571 40.64C98.7371 40.28 98.5271 39.75 98.5271 39.05V28.1C98.5271 27.4 98.7471 26.87 99.1871 26.51C99.6271 26.15 100.167 25.97 100.807 25.97C101.447 25.97 101.977 26.15 102.397 26.51C102.837 26.87 103.057 27.4 103.057 28.1V39.05C103.057 39.75 102.837 40.28 102.397 40.64C101.977 41 101.447 41.18 100.807 41.18ZM100.807 23.57C100.007 23.57 99.3771 23.37 98.9171 22.97C98.4571 22.55 98.2271 21.99 98.2271 21.29C98.2271 20.59 98.4571 20.04 98.9171 19.64C99.3771 19.24 100.007 19.04 100.807 19.04C101.587 19.04 102.207 19.25 102.667 19.67C103.147 20.07 103.387 20.61 103.387 21.29C103.387 21.99 103.157 22.55 102.697 22.97C102.237 23.37 101.607 23.57 100.807 23.57Z" fill="white"/>
<path d="M113.605 41.24C112.385 41.24 111.325 41.14 110.425 40.94C109.525 40.74 108.735 40.42 108.055 39.98C107.755 39.8 107.525 39.56 107.365 39.26C107.205 38.96 107.125 38.62 107.125 38.24C107.125 37.78 107.255 37.4 107.515 37.1C107.775 36.78 108.095 36.62 108.475 36.62C108.735 36.62 108.995 36.67 109.255 36.77C109.515 36.85 109.785 36.95 110.065 37.07C110.625 37.33 111.175 37.54 111.715 37.7C112.255 37.84 112.925 37.91 113.725 37.91C114.425 37.91 114.965 37.8 115.345 37.58C115.745 37.36 115.945 37.06 115.945 36.68C115.945 36.4 115.855 36.18 115.675 36.02C115.515 35.84 115.205 35.68 114.745 35.54C114.285 35.4 113.555 35.23 112.555 35.03C110.775 34.69 109.495 34.18 108.715 33.5C107.935 32.82 107.545 31.87 107.545 30.65C107.545 29.75 107.815 28.94 108.355 28.22C108.915 27.5 109.675 26.94 110.635 26.54C111.595 26.12 112.675 25.91 113.875 25.91C114.735 25.91 115.575 26.02 116.395 26.24C117.215 26.46 117.945 26.77 118.585 27.17C119.205 27.55 119.515 28.11 119.515 28.85C119.515 29.33 119.385 29.73 119.125 30.05C118.865 30.37 118.545 30.53 118.165 30.53C117.705 30.53 117.155 30.35 116.515 29.99C116.015 29.73 115.555 29.54 115.135 29.42C114.735 29.28 114.255 29.21 113.695 29.21C113.075 29.21 112.585 29.33 112.225 29.57C111.865 29.79 111.685 30.1 111.685 30.5C111.685 30.92 111.895 31.24 112.315 31.46C112.735 31.68 113.545 31.9 114.745 32.12C116.085 32.38 117.135 32.7 117.895 33.08C118.655 33.44 119.205 33.9 119.545 34.46C119.885 35.02 120.055 35.73 120.055 36.59C120.055 38.01 119.465 39.14 118.285 39.98C117.125 40.82 115.565 41.24 113.605 41.24Z" fill="white"/>
<path d="M132.188 37.88C132.788 37.92 133.228 38.07 133.508 38.33C133.788 38.59 133.928 38.97 133.928 39.47C133.928 40.05 133.698 40.49 133.238 40.79C132.778 41.09 132.118 41.21 131.258 41.15L130.418 41.09C126.918 40.81 125.168 38.98 125.168 35.6V29.66H123.968C123.308 29.66 122.808 29.52 122.468 29.24C122.128 28.94 121.958 28.52 121.958 27.98C121.958 27.42 122.128 27 122.468 26.72C122.808 26.42 123.308 26.27 123.968 26.27H125.168V23.93C125.168 23.27 125.368 22.75 125.768 22.37C126.188 21.99 126.748 21.8 127.448 21.8C128.148 21.8 128.698 21.99 129.098 22.37C129.498 22.75 129.698 23.27 129.698 23.93V26.27H131.798C133.158 26.27 133.838 26.84 133.838 27.98C133.838 28.52 133.668 28.94 133.328 29.24C132.988 29.52 132.478 29.66 131.798 29.66H129.698V35.93C129.698 36.53 129.838 36.99 130.118 37.31C130.398 37.61 130.808 37.78 131.348 37.82L132.188 37.88Z" fill="white"/>
<path d="M143.729 25.91C145.889 25.91 147.489 26.44 148.529 27.5C149.569 28.54 150.089 30.14 150.089 32.3V39.08C150.089 39.74 149.899 40.26 149.519 40.64C149.139 41 148.609 41.18 147.929 41.18C147.289 41.18 146.769 40.99 146.369 40.61C145.989 40.21 145.799 39.7 145.799 39.08V38.87C145.499 39.61 144.999 40.19 144.299 40.61C143.599 41.03 142.779 41.24 141.839 41.24C140.839 41.24 139.929 41.04 139.109 40.64C138.309 40.24 137.669 39.68 137.189 38.96C136.729 38.24 136.499 37.44 136.499 36.56C136.499 35.48 136.769 34.63 137.309 34.01C137.869 33.39 138.759 32.94 139.979 32.66C141.199 32.38 142.869 32.24 144.989 32.24H145.769V31.7C145.769 30.86 145.579 30.25 145.199 29.87C144.839 29.49 144.229 29.3 143.369 29.3C142.509 29.3 141.269 29.6 139.649 30.2C139.189 30.42 138.799 30.53 138.479 30.53C138.039 30.53 137.689 30.38 137.429 30.08C137.169 29.76 137.039 29.35 137.039 28.85C137.039 28.45 137.129 28.12 137.309 27.86C137.489 27.6 137.779 27.36 138.179 27.14C138.879 26.76 139.729 26.46 140.729 26.24C141.749 26.02 142.749 25.91 143.729 25.91ZM142.829 38.12C143.709 38.12 144.419 37.83 144.959 37.25C145.499 36.65 145.769 35.88 145.769 34.94V34.43H145.259C143.639 34.43 142.499 34.56 141.839 34.82C141.199 35.08 140.879 35.55 140.879 36.23C140.879 36.79 141.059 37.25 141.419 37.61C141.799 37.95 142.269 38.12 142.829 38.12Z" fill="white"/>
<path d="M164.096 25.91C165.356 25.91 166.476 26.24 167.456 26.9C168.456 27.54 169.226 28.45 169.766 29.63C170.326 30.79 170.606 32.13 170.606 33.65C170.606 35.17 170.326 36.51 169.766 37.67C169.226 38.81 168.466 39.69 167.486 40.31C166.506 40.93 165.376 41.24 164.096 41.24C163.096 41.24 162.186 41.04 161.366 40.64C160.566 40.22 159.946 39.64 159.506 38.9V44.57C159.506 45.17 159.306 45.65 158.906 46.01C158.506 46.37 157.976 46.55 157.316 46.55C156.616 46.55 156.046 46.36 155.606 45.98C155.186 45.6 154.976 45.1 154.976 44.48V28.1C154.976 27.46 155.176 26.95 155.576 26.57C155.996 26.17 156.546 25.97 157.226 25.97C157.906 25.97 158.446 26.17 158.846 26.57C159.246 26.95 159.446 27.46 159.446 28.1V28.34C159.886 27.58 160.516 26.99 161.336 26.57C162.156 26.13 163.076 25.91 164.096 25.91ZM162.776 37.79C163.836 37.79 164.656 37.44 165.236 36.74C165.816 36.02 166.106 34.99 166.106 33.65C166.106 32.29 165.816 31.24 165.236 30.5C164.656 29.74 163.836 29.36 162.776 29.36C161.716 29.36 160.896 29.73 160.316 30.47C159.736 31.19 159.446 32.23 159.446 33.59C159.446 34.93 159.736 35.97 160.316 36.71C160.896 37.43 161.716 37.79 162.776 37.79Z" fill="white"/>
<path d="M176.742 41.18C176.002 41.18 175.392 40.94 174.912 40.46C174.432 39.96 174.192 39.34 174.192 38.6C174.192 37.86 174.432 37.25 174.912 36.77C175.392 36.27 176.002 36.02 176.742 36.02C177.482 36.02 178.092 36.27 178.572 36.77C179.052 37.25 179.292 37.86 179.292 38.6C179.292 39.34 179.052 39.96 178.572 40.46C178.092 40.94 177.482 41.18 176.742 41.18Z" fill="white"/>
<path d="M202.025 25.91C203.625 25.91 204.855 26.4 205.715 27.38C206.575 28.34 207.005 29.92 207.005 32.12V39.05C207.005 39.75 206.795 40.28 206.375 40.64C205.955 41 205.415 41.18 204.755 41.18C204.115 41.18 203.575 41 203.135 40.64C202.695 40.28 202.475 39.75 202.475 39.05V32.06C202.475 31.1 202.305 30.43 201.965 30.05C201.645 29.65 201.145 29.45 200.465 29.45C199.625 29.45 198.955 29.74 198.455 30.32C197.955 30.9 197.705 31.71 197.705 32.75V39.05C197.705 39.75 197.495 40.28 197.075 40.64C196.655 41 196.115 41.18 195.455 41.18C194.815 41.18 194.275 41 193.835 40.64C193.395 40.28 193.175 39.75 193.175 39.05V32.06C193.175 31.1 193.005 30.43 192.665 30.05C192.345 29.65 191.845 29.45 191.165 29.45C190.325 29.45 189.655 29.74 189.155 30.32C188.655 30.9 188.405 31.71 188.405 32.75V39.05C188.405 39.75 188.185 40.28 187.745 40.64C187.325 41 186.795 41.18 186.155 41.18C185.515 41.18 184.975 41 184.535 40.64C184.095 40.28 183.875 39.75 183.875 39.05V28.04C183.875 27.38 184.095 26.87 184.535 26.51C184.995 26.15 185.545 25.97 186.185 25.97C186.785 25.97 187.285 26.15 187.685 26.51C188.085 26.85 188.285 27.33 188.285 27.95V28.25C188.765 27.49 189.385 26.91 190.145 26.51C190.925 26.11 191.805 25.91 192.785 25.91C193.845 25.91 194.735 26.13 195.455 26.57C196.195 26.99 196.765 27.68 197.165 28.64C197.625 27.8 198.275 27.14 199.115 26.66C199.975 26.16 200.945 25.91 202.025 25.91Z" fill="white"/>
<path d="M225.808 37.49C226.268 37.93 226.498 38.43 226.498 38.99C226.498 39.55 226.288 40.05 225.868 40.49C225.468 40.93 224.998 41.15 224.458 41.15C223.938 41.15 223.458 40.94 223.018 40.52L216.448 34.43V39.02C216.448 39.72 216.228 40.25 215.788 40.61C215.368 40.97 214.838 41.15 214.198 41.15C213.538 41.15 212.988 40.97 212.548 40.61C212.128 40.25 211.918 39.72 211.918 39.02V21.83C211.918 21.13 212.128 20.6 212.548 20.24C212.988 19.88 213.538 19.7 214.198 19.7C214.838 19.7 215.368 19.88 215.788 20.24C216.228 20.6 216.448 21.13 216.448 21.83V32.57L222.448 26.66C222.888 26.22 223.378 26 223.918 26C224.478 26 224.968 26.21 225.388 26.63C225.808 27.03 226.018 27.51 226.018 28.07C226.018 28.59 225.788 29.08 225.328 29.54L221.338 33.35L225.808 37.49Z" fill="white"/>
<path d="M0 0V52H40V13.188L39.44 12.562L27.44 0.562L26.812 0.00199986H0V0ZM4 4H24V16H36V48H4V4ZM28 6.876L33.126 12H28V6.874V6.876Z" fill="white"/>
<path d="M9.65079 45C9.14286 45 8.74074 44.8425 8.44444 44.5274C8.14815 44.2124 8 43.7848 8 43.2447V30.6428C8 30.1177 8.13404 29.7126 8.40212 29.4276C8.67019 29.1425 9.05115 29 9.54497 29H14.8571C16.4797 29 17.7425 29.4351 18.6455 30.3052C19.5485 31.1753 20 32.3905 20 33.9508C20 35.511 19.5485 36.7262 18.6455 37.5963C17.7425 38.4665 16.4797 38.9015 14.8571 38.9015H11.3016V43.2447C11.3016 43.7848 11.1534 44.2124 10.8571 44.5274C10.5608 44.8425 10.1587 45 9.65079 45ZM14.4339 36.2461C16.0847 36.2461 16.9101 35.4885 16.9101 33.9733C16.9101 32.443 16.0847 31.6779 14.4339 31.6779H11.3016V36.2461H14.4339Z" fill="white"/>
</svg>
